<svg width="128" height="24" viewBox="0 0 128 24" fill="none" xmlns="http://www.w3.org/2000/svg">
<path d="M2.416 0.567999C2.71467 0.567999 3.024 0.653332 3.344 0.823999C3.68533 0.973332 3.94133 1.176 4.112 1.432L11.888 13.4L10.288 13.336L18.256 1.432C18.6613 0.855999 19.184 0.567999 19.824 0.567999C20.336 0.567999 20.7947 0.749332 21.2 1.112C21.6053 1.47467 21.808 1.944 21.808 2.52V21.048C21.808 21.6027 21.6267 22.072 21.264 22.456C20.9013 22.8187 20.4213 23 19.824 23C19.2267 23 18.736 22.8187 18.352 22.456C17.9893 22.072 17.808 21.6027 17.808 21.048V5.976L19.056 6.264L12.528 16.216C12.336 16.4507 12.0907 16.6533 11.792 16.824C11.5147 16.9947 11.2267 17.0693 10.928 17.048C10.6507 17.0693 10.3627 16.9947 10.064 16.824C9.78667 16.6533 9.552 16.4507 9.36 16.216L3.248 6.552L4.08 4.856V21.048C4.08 21.6027 3.90933 22.072 3.568 22.456C3.22667 22.8187 2.77867 23 2.224 23C1.69067 23 1.25333 22.8187 0.912 22.456C0.570667 22.072 0.4 21.6027 0.4 21.048V2.52C0.4 1.98667 0.592 1.528 0.976 1.144C1.38133 0.759999 1.86133 0.567999 2.416 0.567999ZM53.2268 11.8C53.2268 13.4 52.9601 14.8933 52.4268 16.28C51.8934 17.6667 51.1361 18.8933 50.1548 19.96C49.1948 21.0053 48.0428 21.8267 46.6988 22.424C45.3761 23.0213 43.9254 23.32 42.3468 23.32C40.7681 23.32 39.3174 23.0213 37.9948 22.424C36.6721 21.8267 35.5201 21.0053 34.5388 19.96C33.5788 18.8933 32.8321 17.6667 32.2988 16.28C31.7654 14.8933 31.4988 13.4 31.4988 11.8C31.4988 10.2 31.7654 8.70667 32.2988 7.32C32.8321 5.93333 33.5788 4.71733 34.5388 3.672C35.5201 2.60533 36.6721 1.77333 37.9948 1.176C39.3174 0.578665 40.7681 0.279999 42.3468 0.279999C43.9254 0.279999 45.3761 0.578665 46.6988 1.176C48.0428 1.77333 49.1948 2.60533 50.1548 3.672C51.1361 4.71733 51.8934 5.93333 52.4268 7.32C52.9601 8.70667 53.2268 10.2 53.2268 11.8ZM49.0668 11.8C49.0668 10.3707 48.7788 9.08 48.2028 7.928C47.6268 6.75467 46.8374 5.82667 45.8348 5.144C44.8321 4.46133 43.6694 4.12 42.3468 4.12C41.0241 4.12 39.8614 4.46133 38.8588 5.144C37.8561 5.82667 37.0668 6.744 36.4908 7.896C35.9361 9.048 35.6588 10.3493 35.6588 11.8C35.6588 13.2293 35.9361 14.5307 36.4908 15.704C37.0668 16.856 37.8561 17.7733 38.8588 18.456C39.8614 19.1387 41.0241 19.48 42.3468 19.48C43.6694 19.48 44.8321 19.1387 45.8348 18.456C46.8374 17.7733 47.6268 16.856 48.2028 15.704C48.7788 14.5307 49.0668 13.2293 49.0668 11.8ZM78.58 0.599998C78.9 0.599998 79.156 0.695999 79.348 0.887999C79.54 1.08 79.636 1.304 79.636 1.56C79.636 1.77333 79.572 1.96533 79.444 2.136L64.884 21.432L64.82 21.176H78.548C78.804 21.176 79.028 21.2613 79.22 21.432C79.412 21.6027 79.508 21.816 79.508 22.072C79.508 22.328 79.412 22.552 79.22 22.744C79.028 22.9147 78.804 23 78.548 23H63.22C62.9213 23 62.676 22.8933 62.484 22.68C62.3133 22.4667 62.228 22.2427 62.228 22.008C62.228 21.7947 62.292 21.6027 62.42 21.432L76.916 2.296L77.108 2.424H64.02C63.7427 2.424 63.508 2.33867 63.316 2.168C63.1453 1.976 63.06 1.752 63.06 1.496C63.06 1.24 63.1453 1.02667 63.316 0.855999C63.508 0.685332 63.7427 0.599998 64.02 0.599998H78.58ZM91.0618 0.599998H102.806C103.062 0.599998 103.286 0.695999 103.478 0.887999C103.67 1.05867 103.766 1.28267 103.766 1.56C103.766 1.83733 103.67 2.06133 103.478 2.232C103.286 2.40267 103.062 2.488 102.806 2.488H91.7977L92.1178 1.944V10.936L91.7658 10.52H101.366C101.622 10.52 101.846 10.616 102.038 10.808C102.23 11 102.326 11.224 102.326 11.48C102.326 11.7573 102.23 11.9813 102.038 12.152C101.846 12.3227 101.622 12.408 101.366 12.408H91.8298L92.1178 12.088V21.304L91.9578 21.112H102.806C103.062 21.112 103.286 21.208 103.478 21.4C103.67 21.592 103.766 21.816 103.766 22.072C103.766 22.3493 103.67 22.5733 103.478 22.744C103.286 22.9147 103.062 23 102.806 23H91.0618C90.8058 23 90.5818 22.904 90.3898 22.712C90.1978 22.52 90.1018 22.296 90.1018 22.04V1.56C90.1018 1.304 90.1978 1.08 90.3898 0.887999C90.5818 0.695999 90.8058 0.599998 91.0618 0.599998ZM120.465 23.32C118.844 23.3413 117.436 23.0853 116.241 22.552C115.047 22.0187 113.905 21.2187 112.817 20.152C112.711 20.0667 112.615 19.96 112.529 19.832C112.465 19.704 112.433 19.5547 112.433 19.384C112.433 19.128 112.529 18.8933 112.721 18.68C112.935 18.4667 113.169 18.36 113.425 18.36C113.681 18.36 113.916 18.4667 114.129 18.68C114.961 19.576 115.9 20.2587 116.945 20.728C118.012 21.1973 119.153 21.432 120.369 21.432C121.393 21.432 122.3 21.272 123.089 20.952C123.9 20.632 124.54 20.1733 125.009 19.576C125.479 18.9787 125.713 18.2853 125.713 17.496C125.713 16.5147 125.447 15.7253 124.913 15.128C124.38 14.5093 123.676 14.008 122.801 13.624C121.927 13.2187 120.956 12.856 119.889 12.536C119.015 12.28 118.183 11.992 117.393 11.672C116.604 11.3307 115.9 10.9253 115.281 10.456C114.663 9.96533 114.183 9.368 113.841 8.664C113.5 7.96 113.329 7.10667 113.329 6.104C113.329 4.97333 113.628 3.97067 114.225 3.096C114.823 2.22133 115.665 1.53867 116.753 1.048C117.863 0.535999 119.143 0.279999 120.593 0.279999C121.852 0.279999 123.057 0.493332 124.209 0.919998C125.383 1.34667 126.311 1.976 126.993 2.808C127.313 3.14933 127.473 3.45867 127.473 3.736C127.473 3.94933 127.367 4.16267 127.153 4.376C126.94 4.58933 126.705 4.696 126.449 4.696C126.236 4.696 126.055 4.62133 125.905 4.472C125.543 4.024 125.084 3.62933 124.529 3.288C123.975 2.92533 123.356 2.648 122.673 2.456C122.012 2.264 121.319 2.168 120.593 2.168C119.591 2.168 118.684 2.328 117.873 2.648C117.084 2.94667 116.455 3.384 115.985 3.96C115.537 4.536 115.313 5.22933 115.313 6.04C115.313 6.936 115.569 7.672 116.081 8.248C116.593 8.824 117.265 9.304 118.097 9.688C118.929 10.0507 119.815 10.392 120.753 10.712C121.671 10.968 122.545 11.2667 123.377 11.608C124.231 11.928 124.977 12.3333 125.617 12.824C126.279 13.3147 126.791 13.9333 127.153 14.68C127.537 15.4267 127.729 16.3653 127.729 17.496C127.729 18.584 127.42 19.5653 126.801 20.44C126.183 21.3147 125.329 22.008 124.241 22.52C123.175 23.032 121.916 23.2987 120.465 23.32Z" fill="#82B06F"/>
</svg>
