<svg width="127" height="24" viewBox="0 0 127 24" fill="none" xmlns="http://www.w3.org/2000/svg">
<path d="M0.968 0.599998C1.11733 0.599998 1.26667 0.631999 1.416 0.695999C1.58667 0.76 1.72533 0.866666 1.832 1.016L10.664 14.264L9.8 14.232L18.664 1.016C18.8987 0.695999 19.1867 0.557332 19.528 0.599998C19.784 0.599998 19.9973 0.695999 20.168 0.887999C20.36 1.05867 20.456 1.28267 20.456 1.56V22.04C20.456 22.296 20.36 22.52 20.168 22.712C19.976 22.904 19.7413 23 19.464 23C19.1653 23 18.92 22.904 18.728 22.712C18.536 22.52 18.44 22.296 18.44 22.04V3.512L19.016 3.576L10.92 15.832C10.856 15.96 10.76 16.0667 10.632 16.152C10.504 16.216 10.3547 16.2373 10.184 16.216C10.0347 16.2373 9.88533 16.216 9.736 16.152C9.608 16.0667 9.50133 15.96 9.416 15.832L1.288 3.448L1.896 3.032V22.04C1.896 22.296 1.8 22.52 1.608 22.712C1.43733 22.904 1.21333 23 0.936 23C0.658667 23 0.434667 22.904 0.264 22.712C0.0933335 22.52 0.00800014 22.296 0.00800014 22.04V1.56C0.00800014 1.304 0.0933335 1.08 0.264 0.887999C0.456 0.695999 0.690667 0.599998 0.968 0.599998ZM52.4448 11.8C52.4448 13.4853 52.1781 15.032 51.6448 16.44C51.1328 17.8267 50.3968 19.0427 49.4368 20.088C48.4768 21.112 47.3354 21.912 46.0128 22.488C44.7114 23.0427 43.2821 23.32 41.7248 23.32C40.1674 23.32 38.7274 23.0427 37.4048 22.488C36.1034 21.912 34.9728 21.112 34.0128 20.088C33.0528 19.0427 32.3061 17.8267 31.7728 16.44C31.2608 15.032 31.0048 13.4853 31.0048 11.8C31.0048 10.1147 31.2608 8.57867 31.7728 7.192C32.3061 5.784 33.0528 4.568 34.0128 3.544C34.9728 2.49867 36.1034 1.69867 37.4048 1.144C38.7274 0.567999 40.1674 0.279999 41.7248 0.279999C43.2821 0.279999 44.7114 0.567999 46.0128 1.144C47.3354 1.69867 48.4768 2.49867 49.4368 3.544C50.3968 4.568 51.1328 5.784 51.6448 7.192C52.1781 8.57867 52.4448 10.1147 52.4448 11.8ZM50.3968 11.8C50.3968 9.90133 50.0234 8.23733 49.2768 6.808C48.5514 5.35733 47.5381 4.22667 46.2368 3.416C44.9354 2.60533 43.4314 2.2 41.7248 2.2C40.0394 2.2 38.5354 2.60533 37.2128 3.416C35.9114 4.22667 34.8874 5.35733 34.1408 6.808C33.4154 8.23733 33.0528 9.90133 33.0528 11.8C33.0528 13.6987 33.4154 15.3733 34.1408 16.824C34.8874 18.2533 35.9114 19.3733 37.2128 20.184C38.5354 20.9947 40.0394 21.4 41.7248 21.4C43.4314 21.4 44.9354 20.9947 46.2368 20.184C47.5381 19.3733 48.5514 18.2533 49.2768 16.824C50.0234 15.3733 50.3968 13.6987 50.3968 11.8ZM77.58 0.599998C77.9 0.599998 78.156 0.695999 78.348 0.887999C78.54 1.08 78.636 1.304 78.636 1.56C78.636 1.77333 78.572 1.96533 78.444 2.136L63.884 21.432L63.82 21.176H77.548C77.804 21.176 78.028 21.2613 78.22 21.432C78.412 21.6027 78.508 21.816 78.508 22.072C78.508 22.328 78.412 22.552 78.22 22.744C78.028 22.9147 77.804 23 77.548 23H62.22C61.9213 23 61.676 22.8933 61.484 22.68C61.3133 22.4667 61.228 22.2427 61.228 22.008C61.228 21.7947 61.292 21.6027 61.42 21.432L75.916 2.296L76.108 2.424H63.02C62.7427 2.424 62.508 2.33867 62.316 2.168C62.1453 1.976 62.06 1.752 62.06 1.496C62.06 1.24 62.1453 1.02667 62.316 0.855999C62.508 0.685332 62.7427 0.599998 63.02 0.599998H77.58ZM90.0618 0.599998H101.806C102.062 0.599998 102.286 0.695999 102.478 0.887999C102.67 1.05867 102.766 1.28267 102.766 1.56C102.766 1.83733 102.67 2.06133 102.478 2.232C102.286 2.40267 102.062 2.488 101.806 2.488H90.7977L91.1178 1.944V10.936L90.7658 10.52H100.366C100.622 10.52 100.846 10.616 101.038 10.808C101.23 11 101.326 11.224 101.326 11.48C101.326 11.7573 101.23 11.9813 101.038 12.152C100.846 12.3227 100.622 12.408 100.366 12.408H90.8298L91.1178 12.088V21.304L90.9578 21.112H101.806C102.062 21.112 102.286 21.208 102.478 21.4C102.67 21.592 102.766 21.816 102.766 22.072C102.766 22.3493 102.67 22.5733 102.478 22.744C102.286 22.9147 102.062 23 101.806 23H90.0618C89.8058 23 89.5818 22.904 89.3898 22.712C89.1978 22.52 89.1018 22.296 89.1018 22.04V1.56C89.1018 1.304 89.1978 1.08 89.3898 0.887999C89.5818 0.695999 89.8058 0.599998 90.0618 0.599998ZM119.465 23.32C117.844 23.3413 116.436 23.0853 115.241 22.552C114.047 22.0187 112.905 21.2187 111.817 20.152C111.711 20.0667 111.615 19.96 111.529 19.832C111.465 19.704 111.433 19.5547 111.433 19.384C111.433 19.128 111.529 18.8933 111.721 18.68C111.935 18.4667 112.169 18.36 112.425 18.36C112.681 18.36 112.916 18.4667 113.129 18.68C113.961 19.576 114.9 20.2587 115.945 20.728C117.012 21.1973 118.153 21.432 119.369 21.432C120.393 21.432 121.3 21.272 122.089 20.952C122.9 20.632 123.54 20.1733 124.009 19.576C124.479 18.9787 124.713 18.2853 124.713 17.496C124.713 16.5147 124.447 15.7253 123.913 15.128C123.38 14.5093 122.676 14.008 121.801 13.624C120.927 13.2187 119.956 12.856 118.889 12.536C118.015 12.28 117.183 11.992 116.393 11.672C115.604 11.3307 114.9 10.9253 114.281 10.456C113.663 9.96533 113.183 9.368 112.841 8.664C112.5 7.96 112.329 7.10667 112.329 6.104C112.329 4.97333 112.628 3.97067 113.225 3.096C113.823 2.22133 114.665 1.53867 115.753 1.048C116.863 0.535999 118.143 0.279999 119.593 0.279999C120.852 0.279999 122.057 0.493332 123.209 0.919998C124.383 1.34667 125.311 1.976 125.993 2.808C126.313 3.14933 126.473 3.45867 126.473 3.736C126.473 3.94933 126.367 4.16267 126.153 4.376C125.94 4.58933 125.705 4.696 125.449 4.696C125.236 4.696 125.055 4.62133 124.905 4.472C124.543 4.024 124.084 3.62933 123.529 3.288C122.975 2.92533 122.356 2.648 121.673 2.456C121.012 2.264 120.319 2.168 119.593 2.168C118.591 2.168 117.684 2.328 116.873 2.648C116.084 2.94667 115.455 3.384 114.985 3.96C114.537 4.536 114.313 5.22933 114.313 6.04C114.313 6.936 114.569 7.672 115.081 8.248C115.593 8.824 116.265 9.304 117.097 9.688C117.929 10.0507 118.815 10.392 119.753 10.712C120.671 10.968 121.545 11.2667 122.377 11.608C123.231 11.928 123.977 12.3333 124.617 12.824C125.279 13.3147 125.791 13.9333 126.153 14.68C126.537 15.4267 126.729 16.3653 126.729 17.496C126.729 18.584 126.42 19.5653 125.801 20.44C125.183 21.3147 124.329 22.008 123.241 22.52C122.175 23.032 120.916 23.2987 119.465 23.32Z" fill="#82B06F"/>
</svg>
